<?xml version="1.0" encoding="utf-8"?>
<!-- Generator: Adobe Illustrator 25.1.0, SVG Export Plug-In . SVG Version: 6.00 Build 0)  -->
<svg version="1.1" id="Layer_1" xmlns="http://www.w3.org/2000/svg" xmlns:xlink="http://www.w3.org/1999/xlink" x="0px" y="0px"
	 viewBox="0 0 192 192" style="enable-background:new 0 0 192 192;" xml:space="preserve">
<style type="text/css">
	.st0{opacity:0;fill:none;stroke:#000000;stroke-miterlimit:10;}
	.st1{fill:none;stroke:#000000;stroke-width:2;stroke-miterlimit:10;}
</style>
<path d="M123.5,25.7c-9.5,2-21.5,11.5-33.1,26.2c-4.3,5.3-8.7,11.6-8.5,11.9c0.1,0.1,0.9,0.2,1.9,0.4l1.8,0.3l1.7-2.5
	c10-14.3,22.8-26.9,31.7-30.9c6.3-2.9,10.5-2.7,13.7,0.6c2.1,2.1,3.2,4.7,4,9c0.9,5.2-0.1,18.3-1.9,24.8l-0.3,1.1l-8.7,0.1
	c-8.5,0.1-16,0.8-23.3,2L99,69.2l-4.6-1.4c-8.1-2.4-12.7-3.2-20.3-3.2c-5.6,0-7.2,0.2-9.8,0.9c-4.3,1.2-7.4,3-10,5.6
	c-2.8,3.1-3.8,5.8-3.9,10.2c0,5.8,2.5,11.6,7.9,18.3l2.6,3.1l-1.6,4.2c-1.3,3.4-2.7,7.8-4.6,14.1c-0.1,0.3-1.1,0.3-3.6-0.1
	c-9.6-1.5-16.4-4.9-18.1-9c-2.3-5.4,2.9-12.7,13.9-19.9l4-2.6l-0.4-1.4c-0.2-0.8-0.5-1.5-0.7-1.7c-0.9-0.9-11.2,6.6-15.4,11.1
	c-9.8,10.5-6.8,20.8,7.7,25.4c7,2.2,10.3,2.6,23.3,2.6c11.4,0,15.8-0.3,24-1.7l1.6-0.3l-3.2-1.4l-3.2-1.4l-4.1,0.5
	c-2.3,0.2-8,0.6-12.8,0.8c-7.7,0.2-8.8,0.2-9-0.3c-0.4-0.9,4-13.5,6.9-20.4c2.4-5.5,9.2-19.5,10-20.5c0.5-0.6,0.2-0.6-2.5,0.2
	l-2.3,0.6l-4.1,8.5c-2.3,4.6-4.2,8.5-4.3,8.5c-0.7,0-7.1-10-7.1-11.1c0-0.2,2.7-1.5,6-2.9c7.5-3.3,19-7.2,27.5-9.1
	c3.6-0.9,6.4-1.7,6.4-1.8c0-0.1-1.5-0.7-3.2-1.2l-3.2-1l-4.3,1.1c-2.4,0.6-4.4,1.1-4.4,1c-0.1-0.1,0.5-1.1,1.2-2.3l1.3-2.3l2.9,0.6
	c11.8,2.3,26.5,9.2,36.6,17.4c4.9,4,4.7,3.2,2.2,8.8c-1.7,3.8-8.7,17.7-9.1,18.1c-0.6,0.6-19.3,5.3-21.2,5.3
	c-1.3,0-7.8-2.8-12.4-5.4c-4.5-2.5-7.3-4.5-11.5-7.9c-2-1.6-3.7-2.9-3.8-2.9c-0.1,0-0.5,0.8-0.9,1.8c-0.7,1.8-0.7,1.8,0.3,2.6
	c9.9,8.5,23.9,15.6,36.8,18.8c2.1,0.6,4,1.1,4.1,1.1c0.3,0.3-4.8,7.3-9,12.4c-16.4,20.1-31.9,28.6-38.8,21.1
	c-4.3-4.7-5.4-15.4-2.8-29c0.4-2.1,0.7-3.8,0.6-3.9c-0.1-0.1-0.9-0.2-1.8-0.2l-1.7,0l-0.5,2.4c-1.1,5.2-1.8,13.4-1.6,17.8
	c0.4,7.3,1.9,12,5.1,15.4c2.7,3,4.1,3.5,9.2,3.5c3.9,0,4.6-0.1,7.1-1.1c12.4-5.1,27.1-20,40.6-41.3c1.9-2.9,3.3-5.4,3.2-5.5
	c-0.1-0.1-1.3,0.2-2.6,0.7c-2.1,0.7-2.6,1.1-3.4,2.4c-0.5,0.9-1.1,1.6-1.4,1.6c-0.9,0-6.7-1.3-7.3-1.5c-0.3-0.2,0.4-0.5,1.8-0.8
	c7.7-1.7,20.7-6,29.1-9.7c4.7-2.1,4.5-1.9,3.4-4.7l-0.4-1l-2.6,1.3c-3,1.5-12,5.1-12.2,4.9c0-0.1,1-2.3,2.3-4.9
	c1.3-2.6,3.2-6.5,4.1-8.7c1-2.2,1.9-4.1,2.1-4.3c0.4-0.4,4.6,5.3,6.2,8.5c1.7,3.4,2.7,7.4,2.3,9.8c-0.4,2.5-1.9,5.6-3.6,7.2
	c-3.2,2.8-9.5,4.7-15.7,4.7h-3.4l-1,1.5c-0.6,0.8-1,1.6-1,1.7c0,0.6,4.9,0.8,8.9,0.4c9.4-0.9,15.4-4.3,18.3-10.3
	c0.9-1.9,1-2.7,1.1-6.3l0.1-4.1l3.4-2.1c20.4-12.3,24.3-26.3,9.2-33.6c-3.3-1.6-9.4-3.3-13.6-3.8c-1.2-0.2-2.2-0.4-2.2-0.6
	c0-0.2,0.3-1.7,0.6-3.2c1.8-8.4,2.3-18.8,1.2-24.5c-1.3-6.5-4-10.7-8.1-12.5C129.8,25.5,125.9,25.2,123.5,25.7z M78.3,68.7
	c0,0.1-0.9,1.7-2,3.5l-2,3.3l-3.3,1.1c-3.8,1.3-11.7,4.5-14.5,5.9c-1.1,0.6-2,1-2.2,1s-0.2-1.2-0.1-2.7c0.6-7.8,7.4-12.2,19.2-12.3
	C76.2,68.4,78.3,68.5,78.3,68.7z M141.2,71.3c12.3,2.2,19.2,7.1,18.1,12.9c-1,5.2-7,11.5-16.4,17.3c-1.5,0.9-2.8,1.6-2.8,1.6
	c-0.1,0-0.6-0.8-1-1.8c-1.1-2.3-3.8-6.4-6.3-9.4l-2-2.3l1.1-3c1.7-4.4,4.8-14.2,4.7-14.4c-0.1-0.1-0.9-0.3-1.7-0.4l-1.6-0.3l-2.3,7
	c-1.3,3.8-2.5,7.2-2.8,7.6c-0.4,0.6-0.8,0.4-3-1.5c-4.8-4.1-10.1-7.5-16.1-10.6c-2.2-1.1-3.1-1.8-2.8-2c0.3-0.2,2.8-0.5,5.5-0.8
	c2.7-0.2,5.3-0.5,5.7-0.6c0.4-0.1,5.1-0.1,10.4,0C134.7,70.7,138.7,70.9,141.2,71.3z"/>
<circle class="st0" cx="96" cy="96" r="80"/>
<circle class="st1" cx="96" cy="96" r="10.5"/>
</svg>
